<?xml version="1.0" encoding="iso-8859-1"?>
<!-- Generator: Adobe Illustrator 18.0.0, SVG Export Plug-In . SVG Version: 6.00 Build 0)  -->
<!DOCTYPE svg PUBLIC "-//W3C//DTD SVG 1.1//EN" "http://www.w3.org/Graphics/SVG/1.1/DTD/svg11.dtd">
<svg version="1.1" id="Capa_1" xmlns="http://www.w3.org/2000/svg" xmlns:xlink="http://www.w3.org/1999/xlink" x="0px" y="0px"
	 viewBox="0 0 425.517 425.517" style="enable-background:new 0 0 425.517 425.517;" xml:space="preserve">
<path fill="#548565" d="M395.823,193.016c-20.635-13.847-46.359-13.433-70.218,0.717c-4.881-19.376-15.446-34.394-30.224-43.121
	c-1.049-23.959-9.14-45.377-23.54-62.115c-13.841-16.088-32.52-26.579-52.594-29.542c-18.381-2.712-36.118,1.041-51.301,10.85
	c-14.311,9.245-25.601,23.632-33.009,41.915C108.35,88.872,76.542,82.933,48.345,96.017C16.369,110.853-2.914,146.204,0.36,183.985
	c2.579,29.753,18.464,58.621,45.937,83.483c32.261,29.194,79.335,52.219,139.916,68.433c0.521,0.14,1.042,0.206,1.556,0.206
	l0.002-0.013l0.004,0.011c1.436,0,2.878-0.513,4.026-1.554c8.243-7.469,16.02-14.966,23.331-22.472
	c9.444,17.234,21.555,35.06,36.083,53.103c1.186,1.473,2.923,2.237,4.677,2.237l0.008-0.017c0,0,0.423,0.006,0.636-0.017
	c50.036-5.267,90.247-17.636,119.515-36.765c25.047-16.371,41.361-37.427,47.181-60.893
	C430.647,239.824,419.633,208.995,395.823,193.016z M186.155,323.447c-57.189-15.66-101.529-37.477-131.806-64.876
	c-25.187-22.793-39.722-48.942-42.034-75.622c-2.84-32.769,13.669-63.329,41.08-76.048c26.252-12.178,55.355-5.037,79.842,19.598
	c2.335,2.351,6.135,2.361,8.485,0.026c0.712-0.707,1.182-1.555,1.464-2.449l0.032,0.011c14.377-45.229,47.794-57.172,74.278-53.261
	c29.314,4.326,61.006,29.309,65.467,74.265c-4.903-1.542-9.959-2.433-15.056-2.722c-4.841-32.059-26.65-54.848-54.485-56.118
	c-14.816-0.687-29.362,5.255-40.922,16.704c-12.158,12.042-20.866,30.005-25.293,52.051c-0.469,0.15-1.391,0.691-3.372,0.821
	c-24.829-31.162-55.345-44.128-82.053-34.688c-22.106,7.811-35.978,29.594-35.34,55.494c0.581,23.565,13.187,48.31,35.495,69.674
	c26.718,25.587,66.207,46.313,117.372,61.601c0.564,0.168,1.13,0.248,1.689,0.251l0.003,0.006c1.494,0,2.991-0.555,4.154-1.672
	c57.482-55.184,76.495-100.171,81.879-129.71c2.282,0.436,4.539,1.132,6.734,2.121c2.386,1.074,4.622,2.435,6.701,4.06
	C270.818,227.189,238.301,275.63,186.155,323.447z M198.716,275.321c-5.856,6.501-12.286,13.192-19.338,20.063
	c-47.68-14.625-84.391-34.043-109.14-57.745c-20.003-19.156-31.296-40.928-31.798-61.303c-0.509-20.61,10.224-37.836,27.341-43.884
	c22.043-7.787,48.108,4.299,69.833,32.326c1.383,2.525,4.102,3.228,6.756,3.228c2.388,0,4.718-0.563,5.961-0.863
	c1.937-0.47,3.693-1.058,5.096-1.668c3.871-1.683,5.042-5.54,5.052-5.595c3.797-20.866,11.565-37.602,22.467-48.4
	c9.149-9.062,20.498-13.77,31.93-13.242c17.807,0.814,38.082,15.123,42.975,44.568c-15.609,2.008-30.821,9.525-42.533,21.708
	C188.677,190.146,183.429,230.385,198.716,275.321z M240.352,184.394c4.416-3.73,9.34-6.199,14.413-7.365
	c-3.465,17.064-11.864,39.404-30.369,66.102C220.618,217.7,226.272,196.288,240.352,184.394z M302.83,236.738
	c1.089,0.706,2.478,1.417,4.01,2.053c1.536,0.64,3.02,1.122,4.288,1.396c0.832,0.18,1.587,0.226,2.271,0.259
	c2.668,0.128,4.653-1.736,4.711-1.791c20.358-19.33,42.093-25.686,58.146-16.992c12.291,6.655,18.375,21.091,15.5,36.774
	c-2.879,15.706-14.331,31.21-32.246,43.655c-22.2,15.422-53.201,26.056-92.136,31.657c-12.096-16.257-21.86-32.167-29.077-47.381
	c25.982-31.351,43.514-62.521,51.751-92.249c5.461,9.245,8.596,21.646,8.975,36.327C298.949,232.219,299.599,234.643,302.83,236.738
	z M411.584,266.841c-5.077,20.472-19.635,39.054-42.1,53.736c-27.032,17.669-64.357,29.273-110.965,34.519
	c-14.127-17.813-25.781-35.337-34.695-52.185c2.034-2.206,4.023-4.413,5.975-6.619c7.733,15.38,17.839,31.332,30.14,47.542
	c1.18,1.556,2.971,2.373,4.784,2.373c0,0,0.517-0.026,0.775-0.061c42.485-5.715,76.419-17.22,100.858-34.197
	c20.536-14.267,33.748-32.502,37.203-51.347c3.829-20.89-4.646-40.315-21.59-49.491c-20.224-10.948-46.195-4.626-69.929,16.836
	c-0.188-0.071-0.384-0.148-0.596-0.236c-0.192-0.079-0.37-0.157-0.538-0.232c-1.39-29.271-13.027-50.88-32.212-59.517
	c-15.083-6.789-32.743-4.007-46.087,7.266c-19.494,16.468-26.09,46.609-17.876,81.032c-2.157,2.769-4.42,5.579-6.795,8.429
	c-11.108-37.738-6.184-70.83,14.029-91.856c15.442-16.063,38.016-22.447,57.513-16.259c19.497,6.187,32.308,23.218,36.074,47.956
	l0.02-0.003c0.141,0.926,0.496,1.834,1.088,2.643c1.956,2.675,5.712,3.257,8.385,1.299c21.971-16.078,45.329-18.078,64.09-5.487
	C408.769,216.155,417.789,241.819,411.584,266.841z"/>
<g>
</g>
<g>
</g>
<g>
</g>
<g>
</g>
<g>
</g>
<g>
</g>
<g>
</g>
<g>
</g>
<g>
</g>
<g>
</g>
<g>
</g>
<g>
</g>
<g>
</g>
<g>
</g>
<g>
</g>
</svg>
