<svg id="Layer_2" data-name="Layer 2" xmlns="http://www.w3.org/2000/svg" viewBox="0 0 974.24 1358.68"><defs><style>.cls-1{fill:#548565;}</style></defs><title>2</title><path class="cls-1" d="M869,672.17c35.6-49.71,157.65-227.55,176.93-255.66a5.88,5.88,0,0,0-.46-7.25c-26.51-29.69-95.37-91-116-109.28a19.65,19.65,0,0,0-13.89-4.89c-192,8.47-320.73,41.71-349.8,49.85A23.32,23.32,0,0,0,555,351.45C512.65,396.61,452.13,474.25,438.36,492a5.88,5.88,0,0,0,.36,7.63c26.16,27.7,199.17,177,222.24,196.89-162.81,57.2-296.46,198-296.46,352.61,0,243.58,195.34,379.42,436.31,379.42,228.69,0,436.31-169.87,436.31-379.42C1237.12,846.36,1077.48,693.94,869,672.17Zm-70.74-2.33q-14.21.54-28.4,2L738.17,490.75l94-11.33Zm157-222.64,64.2-17.12L853.2,670.78c-1.52-.11-3.05-.19-4.58-.29s-3-.2-4.57-.28l102.87-216A13,13,0,0,1,955.3,447.2ZM909.5,309.42l24,114.66-116-107.33Zm-77.33,156-94,9.33,64-135Zm-38-145.34-66,145.34-46-130.67C699.5,331.42,794.17,320.08,794.17,320.08ZM714.83,477.42c-16.66,1.33-75.33,8-75.33,8l30.67-114.67ZM577.51,360.17a6.64,6.64,0,0,1,4.79-5.36c17.16-4.69,69.7-15.06,69.7-15.06l-90.83,122ZM460.83,485.42l97.34-114.67-18,114.67Zm86.67,16.66h75.33L721.6,679.5h0c-1.69.35-3.37.72-5.05,1.09q-7.56,1.7-15.07,3.64Zm251,887.67c-200.48,0-363-117.48-363-328.14,0-170.73,159-321.86,363-328.13,200.39-6.16,363,134,363,328.13C1161.5,1242.84,988.77,1389.75,798.5,1389.75Z" transform="translate(-262.88 -69.91)"/><path class="cls-1" d="M695.22,260.8a5,5,0,0,0,4.94,4.28,4.36,4.36,0,0,0,.72-.05,5,5,0,0,0,4.23-5.66L678.45,74.2a5,5,0,1,0-9.9,1.42Z" transform="translate(-262.88 -69.91)"/><path class="cls-1" d="M428,720.75a5,5,0,0,0,3.64-1.57l82.5-87.5a5,5,0,1,0-7.28-6.86l-82.5,87.5a5,5,0,0,0,3.64,8.43Z" transform="translate(-262.88 -69.91)"/><path class="cls-1" d="M376.49,462.25a5,5,0,0,0,3.12-8.91L271,366.84a5,5,0,1,0-6.23,7.82l108.61,86.5A5,5,0,0,0,376.49,462.25Z" transform="translate(-262.88 -69.91)"/><path class="cls-1" d="M511.23,307.35a5,5,0,1,0,8.54-5.21l-72-118a5,5,0,0,0-8.54,5.21Z" transform="translate(-262.88 -69.91)"/><path class="cls-1" d="M860.25,250.22A5,5,0,0,0,867,248L932.3,118a5,5,0,0,0-8.94-4.49L858,243.5A5,5,0,0,0,860.25,250.22Z" transform="translate(-262.88 -69.91)"/><path class="cls-1" d="M1076.5,380.75a5,5,0,0,0,3.08-1.07l103-80.68a5,5,0,0,0-6.17-7.87l-103,80.68a5,5,0,0,0,3.09,8.94Z" transform="translate(-262.88 -69.91)"/><path class="cls-1" d="M1007.74,572a5,5,0,0,0,.46,7.06l72.5,63.5a5,5,0,1,0,6.59-7.52l-72.5-63.5A5,5,0,0,0,1007.74,572Z" transform="translate(-262.88 -69.91)"/></svg>